# xmcd CD database file
#
# Track frame offsets:
#	150
#	6782
#	22157
#	33460
#	46517
#	59920
#	79422
#	94652
#	99347
#	110154
#	131462
#	164434
#	175847
#	189075
#	197035
#	215475
#	227322
#	246207
#	263460
#	276455
#	280955
#	288820
#
# Disc length: 3882 seconds
#
# Revision: 0
# Processed by: cddbd v1.5.2PL0 Copyright (c) Steve Scherf et al.
# Submitted via: CDex 1.51
#
DISCID=340f2816
DTITLE=Dan Plonsey - Ivory Bill
DYEAR=1997
DGENRE=Jazz
TTITLE0=Titanis
TTITLE1=Wedding Music for Mantra and Dan
TTITLE2=Dance of Ignorant Passion
TTITLE3=But We Love You, Charlie Brown
TTITLE4=Ivory Bill
TTITLE5=The Butterfly Path is Gone
TTITLE6=For John Gilmore
TTITLE7=Cleveland Heights, Ohio
TTITLE8=Now What?
TTITLE9=Borgani
TTITLE10=Appearance of Birds
TTITLE11=Bird Extinction
TTITLE12=Lizard Music
TTITLE13=Merry-Go-Round
TTITLE14=Gift of Ballet
TTITLE15=Ah-Leu-Cha
TTITLE16=Fulvous Whistling Duck
TTITLE17=Swollen Apparatus
TTITLE18=Saha Meets Sabu
TTITLE19=I Can't Get Started
TTITLE20=Solaris
TTITLE21=Black-Bellied Whistling Duck
EXTD=YEAR: 1997
EXTT0=
EXTT1=
EXTT2=
EXTT3=
EXTT4=
EXTT5=
EXTT6=
EXTT7=
EXTT8=
EXTT9=
EXTT10=
EXTT11=
EXTT12=
EXTT13=
EXTT14=
EXTT15=
EXTT16=
EXTT17=
EXTT18=
EXTT19=
EXTT20=
EXTT21=
PLAYORDER=
